<svg width="32" height="32" viewBox="0 0 32 32" fill="none" xmlns="http://www.w3.org/2000/svg">
<path d="M20 22.6667H26.6666L24.7934 20.7934C24.2854 20.2854 24 19.5964 24 18.8779V14.6667C24 11.1834 21.7738 8.22012 18.6666 7.12189V6.66667C18.6666 5.19391 17.4727 4 16 4C14.5272 4 13.3333 5.19391 13.3333 6.66667V7.12189C10.2261 8.22012 7.99998 11.1834 7.99998 14.6667V18.8779C7.99998 19.5964 7.71458 20.2854 7.20656 20.7934L5.33331 22.6667H12M20 22.6667V24C20 26.2091 18.2091 28 16 28C13.7908 28 12 26.2091 12 24V22.6667M20 22.6667H12" stroke="#111827" stroke-width="2" stroke-linecap="round" stroke-linejoin="round"/>
</svg>
